<svg width="44" height="45" viewBox="0 0 44 45" fill="none" xmlns="http://www.w3.org/2000/svg">
<path d="M22.0001 9C22.0025 8.20006 21.8449 7.40773 21.5365 6.6696C21.2282 5.93147 20.7754 5.26245 20.2047 4.70189C19.634 4.14133 18.957 3.70055 18.2135 3.40546C17.4699 3.11038 16.6749 2.96696 15.8751 2.98363C15.0754 3.0003 14.287 3.17672 13.5564 3.50253C12.8258 3.82834 12.1678 4.29696 11.621 4.88081C11.0741 5.46466 10.6496 6.15197 10.3723 6.90231C10.0949 7.65264 9.97046 8.45086 10.0061 9.25C8.83055 9.55228 7.73915 10.1181 6.81461 10.9046C5.89007 11.6911 5.15663 12.6777 4.66984 13.7897C4.18304 14.9016 3.95567 16.1098 4.00493 17.3226C4.05419 18.5355 4.37879 19.7212 4.95415 20.79C3.94251 21.6119 3.147 22.6685 2.63683 23.8679C2.12665 25.0673 1.91726 26.3732 2.02688 27.672C2.13649 28.9708 2.56178 30.2231 3.26576 31.32C3.96974 32.417 4.93108 33.3253 6.06615 33.966C5.92598 35.0505 6.00963 36.1522 6.31192 37.203C6.61422 38.2539 7.12874 39.2317 7.82372 40.0759C8.5187 40.9201 9.37937 41.6129 10.3526 42.1115C11.3258 42.6101 12.3909 42.9039 13.4821 42.9747C14.5733 43.0455 15.6674 42.8918 16.6969 42.5232C17.7264 42.1546 18.6694 41.5789 19.4677 40.8315C20.2659 40.0842 20.9025 39.1811 21.3381 38.1781C21.7737 37.1751 21.999 36.0935 22.0001 35V9Z" stroke="#116046" stroke-width="4" stroke-linecap="round" stroke-linejoin="round"/>
<path d="M22 9C21.9977 8.20006 22.1553 7.40773 22.4636 6.6696C22.772 5.93147 23.2248 5.26245 23.7955 4.70189C24.3662 4.14133 25.0432 3.70055 25.7867 3.40546C26.5302 3.11038 27.3253 2.96696 28.125 2.98363C28.9248 3.0003 29.7132 3.17672 30.4438 3.50253C31.1743 3.82834 31.8324 4.29696 32.3792 4.88081C32.9261 5.46466 33.3506 6.15197 33.6279 6.90231C33.9052 7.65264 34.0297 8.45086 33.994 9.25C35.1696 9.55228 36.261 10.1181 37.1856 10.9046C38.1101 11.6911 38.8436 12.6777 39.3303 13.7897C39.8171 14.9016 40.0445 16.1098 39.9953 17.3226C39.946 18.5355 39.6214 19.7212 39.046 20.79C40.0577 21.6119 40.8532 22.6685 41.3634 23.8679C41.8735 25.0673 42.0829 26.3732 41.9733 27.672C41.8637 28.9708 41.4384 30.2231 40.7344 31.32C40.0304 32.417 39.0691 33.3253 37.934 33.966C38.0742 35.0505 37.9905 36.1522 37.6883 37.203C37.386 38.2539 36.8714 39.2317 36.1765 40.0759C35.4815 40.9201 34.6208 41.6129 33.6476 42.1115C32.6744 42.6101 31.6093 42.9039 30.5181 42.9747C29.4269 43.0455 28.3327 42.8918 27.3033 42.5232C26.2738 42.1546 25.3308 41.5789 24.5325 40.8315C23.7342 40.0842 23.0977 39.1811 22.6621 38.1781C22.2265 37.1751 22.0012 36.0935 22 35V9Z" stroke="#116046" stroke-width="4" stroke-linecap="round" stroke-linejoin="round"/>
<path d="M28.0001 25C26.321 24.4093 24.8547 23.334 23.7868 21.91C22.7188 20.486 22.097 18.7773 22.0001 17C21.9032 18.7773 21.2814 20.486 20.2135 21.91C19.1455 23.334 17.6792 24.4093 16.0001 25M33.1981 12C33.6821 11.1612 33.9559 10.2176 33.9961 9.25M10.0061 9.25C10.0457 10.2175 10.3188 11.161 10.8021 12M4.9541 20.792C5.31998 20.494 5.71151 20.229 6.1241 20M37.8761 20C38.2887 20.229 38.6802 20.494 39.0461 20.792M10.0001 35C8.62176 35.0006 7.26664 34.6452 6.0661 33.968M37.9341 33.968C36.7336 34.6452 35.3784 35.0006 34.0001 35" stroke="#116046" stroke-width="4" stroke-linecap="round" stroke-linejoin="round"/>
</svg>
